<svg width="583" height="509" viewBox="0 0 583 509" fill="none" xmlns="http://www.w3.org/2000/svg">
<path d="M290.708 127.136C326.246 91.5983 440.968 63.85 461.828 84.7096C475.105 97.9869 468.69 149.292 453.107 194C453.107 194 403 158 353 175.5C303 193 290.708 255.829 290.708 255.829C255.171 220.292 255.171 162.674 290.708 127.136Z" fill="#8BBB25"/>
<path d="M381 163.88C431.258 163.88 532 225.38 532 254.88C532 273.657 491.185 305.399 448.553 325.993C448.553 325.993 438.578 265.107 390.848 242.126C343.119 219.145 290 254.88 290 254.88C290 204.622 330.742 163.88 381 163.88Z" fill="#18C249"/>
<path d="M418.864 253.708C454.401 289.246 482.15 403.968 461.29 424.828C448.013 438.105 396.708 431.689 352 416.107C352 416.107 388 366 370.5 316C353 266 290.17 253.708 290.17 253.708C325.708 218.17 383.326 218.17 418.864 253.708Z" fill="#1BA3A0"/>
<path d="M382.12 344C382.12 394.258 320.62 495 291.12 495C272.343 495 240.601 454.185 220.007 411.553C220.007 411.553 280.893 401.578 303.874 353.848C326.855 306.119 291.12 253 291.12 253C341.378 253 382.12 293.742 382.12 344Z" fill="#1E83F7"/>
<path d="M292.292 381.864C256.754 417.402 142.032 445.15 121.172 424.29C107.895 411.013 114.31 359.708 129.893 315C129.893 315 180 351 230 333.5C280 316 292.292 253.171 292.292 253.171C327.83 288.708 327.83 346.326 292.292 381.864Z" fill="#857ED6"/>
<path d="M202 345.12C151.742 345.12 51 283.62 51 254.12C51 235.343 91.8148 203.601 134.447 183.007C134.447 183.007 144.422 243.893 192.152 266.874C239.881 289.855 293 254.12 293 254.12C293 304.378 252.258 345.12 202 345.12Z" fill="#ED79B5"/>
<path d="M164.136 255.292C128.598 219.754 100.85 105.032 121.71 84.172C134.987 70.8947 186.292 77.3105 231 92.8933C231 92.8933 195 143 212.5 193C230 243 292.83 255.292 292.83 255.292C257.292 290.83 199.674 290.83 164.136 255.292Z" fill="#F3516B"/>
<path d="M200.88 165C200.88 114.742 262.38 14 291.88 14C310.657 14 342.399 54.8148 362.993 97.4468C362.993 97.4468 302.107 107.422 279.126 155.152C256.145 202.881 291.88 256 291.88 256C241.622 256 200.88 215.258 200.88 165Z" fill="#FA2921"/>
<path fill-rule="evenodd" clip-rule="evenodd" d="M200.88 165C200.88 114.742 262.38 14 291.88 14C310.513 14 341.912 54.191 362.517 96.466L352 100.002C348.028 91.9485 343.647 83.967 339.034 76.3527C329.782 61.0798 319.814 47.6424 310.645 38.1816C306.053 33.4428 301.903 29.9546 298.375 27.7202C294.694 25.3895 292.6 25 291.88 25C291.16 25 289.066 25.3895 285.385 27.7202C281.857 29.9546 277.708 33.4428 273.115 38.1816C263.946 47.6424 253.978 61.0798 244.726 76.3527C235.501 91.5817 227.203 108.28 221.243 124.085C215.214 140.074 211.88 154.357 211.88 165C211.88 209.183 247.697 245 291.88 245V256C241.622 256 200.88 215.258 200.88 165Z" fill="black"/>
<path fill-rule="evenodd" clip-rule="evenodd" d="M290.708 127.136C326.246 91.5984 440.968 63.85 461.828 84.7096C475.003 97.8851 468.787 148.507 453.464 192.97L443.526 188.033C446.412 179.53 448.958 170.788 451.081 162.143C455.338 144.801 457.791 128.251 457.998 115.077C458.101 108.479 457.634 103.079 456.719 99.0037C455.764 94.7533 454.559 92.9969 454.05 92.4878C453.54 91.9787 451.784 90.7732 447.534 89.8188C443.459 88.9039 438.058 88.4363 431.46 88.5398C418.287 88.7463 401.737 91.1992 384.395 95.4566C367.103 99.7018 349.428 105.642 334.038 112.603C318.469 119.646 306.012 127.388 298.486 134.914C272.164 161.237 268.019 201.338 286.051 232C287.617 234.662 289.35 237.254 291.25 239.758C293.44 242.645 295.852 245.417 298.486 248.051L290.708 255.829C255.17 220.292 255.17 162.674 290.708 127.136Z" fill="black"/>
<path fill-rule="evenodd" clip-rule="evenodd" d="M164.136 255.292C128.598 219.754 100.85 105.032 121.71 84.1721C134.885 70.9966 185.507 77.2132 229.97 92.5363L225.033 102.474C216.53 99.5878 207.788 97.0416 199.143 94.919C181.801 90.6616 165.251 88.2087 152.077 88.0022C145.479 87.8987 140.079 88.3663 136.004 89.2812C131.753 90.2356 129.997 91.4411 129.488 91.9502C128.979 92.4593 127.773 94.2156 126.819 98.4661C125.904 102.541 125.436 107.942 125.54 114.54C125.746 127.713 128.199 144.263 132.457 161.605C136.702 178.897 142.642 196.571 149.603 211.962C156.646 227.531 164.389 239.988 171.914 247.514C203.156 278.756 253.809 278.756 285.051 247.514L292.83 255.292C257.292 290.83 199.674 290.83 164.136 255.292Z" fill="black"/>
<path fill-rule="evenodd" clip-rule="evenodd" d="M381 163.88C431.257 163.88 532 225.38 532 254.88C532 273.513 491.809 304.912 449.534 325.517L445.997 315C454.051 311.028 462.033 306.647 469.647 302.034C484.92 292.782 498.357 282.814 507.818 273.645C512.557 269.053 516.045 264.903 518.279 261.375C520.61 257.694 521 255.6 521 254.88C521 254.16 520.61 252.066 518.279 248.385C516.045 244.857 512.557 240.708 507.818 236.115C498.357 226.946 484.92 216.978 469.647 207.726C454.418 198.501 437.72 190.203 421.915 184.243C405.926 178.214 391.643 174.88 381 174.88C336.817 174.88 301 210.697 301 254.88H290C290 249.728 290.428 244.677 291.25 239.758C291.689 237.133 292.241 234.545 292.9 232C303.047 192.817 338.644 163.88 381 163.88Z" fill="black"/>
<path fill-rule="evenodd" clip-rule="evenodd" d="M418.863 253.708C454.401 289.246 482.149 403.968 461.29 424.828C448.114 438.003 397.492 431.787 353.03 416.464L357.966 406.527C366.47 409.412 375.211 411.958 383.857 414.081C401.199 418.338 417.749 420.791 430.922 420.998C437.52 421.101 442.921 420.634 446.996 419.719C451.246 418.764 453.003 417.559 453.512 417.05C454.021 416.541 455.226 414.784 456.181 410.534C457.096 406.459 457.563 401.058 457.46 394.46C457.253 381.287 454.8 364.737 450.543 347.395C446.298 330.103 440.358 312.429 433.396 297.038C426.354 281.469 418.611 269.012 411.085 261.486C379.843 230.244 329.19 230.244 297.948 261.486L290.17 253.708C325.708 218.17 383.326 218.17 418.863 253.708Z" fill="black"/>
<path fill-rule="evenodd" clip-rule="evenodd" d="M382.119 344C382.119 394.258 320.619 495 291.119 495C272.486 495 241.087 454.809 220.482 412.534L230.999 408.998C234.972 417.052 239.353 425.033 243.965 432.647C253.217 447.92 263.186 461.358 272.354 470.818C276.947 475.557 281.096 479.045 284.625 481.28C288.305 483.611 290.399 484 291.119 484C291.839 484 293.934 483.611 297.614 481.28C301.142 479.045 305.292 475.557 309.884 470.818C319.053 461.358 329.021 447.92 338.273 432.647C347.499 417.418 355.796 400.72 361.757 384.915C367.786 368.926 371.119 354.643 371.119 344C371.119 299.817 335.302 264 291.119 264V253C341.377 253 382.119 293.742 382.119 344Z" fill="black"/>
<path fill-rule="evenodd" clip-rule="evenodd" d="M292.292 381.864C256.754 417.402 142.031 445.15 121.172 424.29C107.996 411.115 114.213 360.493 129.536 316.03L139.473 320.967C136.587 329.47 134.041 338.212 131.919 346.857C127.661 364.199 125.208 380.75 125.002 393.923C124.898 400.521 125.366 405.922 126.281 409.996C127.235 414.247 128.441 416.003 128.95 416.512C129.459 417.021 131.215 418.227 135.466 419.181C139.541 420.096 144.941 420.564 151.539 420.46C164.713 420.254 181.263 417.801 198.605 413.543C215.897 409.298 233.571 403.358 248.962 396.397C264.53 389.354 276.988 381.612 284.513 374.086C315.755 342.844 315.755 292.191 284.513 260.949L292.292 253.171C327.829 288.708 327.829 346.326 292.292 381.864Z" fill="black"/>
<path fill-rule="evenodd" clip-rule="evenodd" d="M202 345.12C151.742 345.12 51 283.62 51 254.12C51 235.487 91.191 204.088 133.466 183.483L137.002 194C128.948 197.972 120.967 202.353 113.353 206.966C98.0797 216.218 84.6424 226.186 75.1815 235.355C70.4427 239.947 66.9545 244.097 64.7202 247.625C62.3895 251.306 62 253.4 62 254.12C62 254.84 62.3895 256.934 64.7202 260.615C66.9545 264.143 70.4427 268.292 75.1815 272.885C84.6424 282.054 98.0797 292.022 113.353 301.274C128.582 310.499 145.28 318.797 161.085 324.757C177.074 330.786 191.357 334.12 202 334.12C246.183 334.12 282 298.303 282 254.12H293C293 304.378 252.258 345.12 202 345.12Z" fill="black"/>
<path d="M286.051 232C287.617 234.662 289.35 237.254 291.25 239.758C291.689 237.133 292.241 234.545 292.9 232C292.9 232 292 234 290 234C287.267 234 286.051 232 286.051 232Z" fill="black"/>
<path d="M303.486 235C302.711 237.99 302.104 241.047 301.676 244.162C303.844 242.616 306.064 241.176 308.329 239.843C308.329 239.843 306.278 240.621 304.864 239.206C302.932 237.274 303.486 235 303.486 235Z" fill="black"/>
<path d="M311.2 266.5C308.21 265.725 305.153 265.118 302.038 264.69C303.584 266.858 305.024 269.077 306.357 271.343C306.357 271.343 305.579 269.292 306.994 267.878C308.926 265.946 311.2 266.5 311.2 266.5Z" fill="black"/>
<path d="M296.92 276.9C295.354 274.238 293.621 271.646 291.721 269.142C291.282 271.767 290.73 274.355 290.071 276.9C290.071 276.9 290.971 274.9 292.971 274.9C295.704 274.9 296.92 276.9 296.92 276.9Z" fill="black"/>
<path d="M279.46 274.2C280.235 271.21 280.842 268.153 281.27 265.038C279.103 266.584 276.883 268.024 274.617 269.357C274.617 269.357 276.668 268.579 278.082 269.994C280.014 271.926 279.46 274.2 279.46 274.2Z" fill="black"/>
<path d="M269 259.95C271.662 258.384 274.254 256.651 276.758 254.751C274.133 254.312 271.545 253.76 269 253.101C269 253.101 271 254.001 271 256.001C271 258.734 269 259.95 269 259.95Z" fill="black"/>
<path d="M271.8 242.5C274.79 243.275 277.847 243.882 280.962 244.31C279.416 242.142 277.976 239.922 276.643 237.657C276.643 237.657 277.421 239.708 276.006 241.122C274.074 243.054 271.8 242.5 271.8 242.5Z" fill="black"/>
<path d="M314 249.05C311.338 250.616 308.746 252.349 306.242 254.249C308.867 254.688 311.455 255.24 314 255.899C314 255.899 312 254.999 312 252.999C312 250.266 314 249.05 314 249.05Z" fill="black"/>
</svg>
