<svg width="481" height="481" viewBox="0 0 481 481" fill="none" xmlns="http://www.w3.org/2000/svg">
<path d="M239.708 113.136C275.246 77.5983 389.968 49.85 410.828 70.7096C424.105 83.9869 417.69 135.292 402.107 180C402.107 180 352 144 302 161.5C252 179 239.708 241.829 239.708 241.829C204.171 206.292 204.171 148.674 239.708 113.136Z" fill="#8BBB25"/>
<path d="M330 149.88C380.258 149.88 481 211.38 481 240.88C481 259.657 440.185 291.399 397.553 311.993C397.553 311.993 387.578 251.107 339.848 228.126C292.119 205.145 239 240.88 239 240.88C239 190.622 279.742 149.88 330 149.88Z" fill="#18C249"/>
<path d="M367.864 239.708C403.401 275.246 431.15 389.968 410.29 410.828C397.013 424.105 345.708 417.689 301 402.107C301 402.107 337 352 319.5 302C302 252 239.17 239.708 239.17 239.708C274.708 204.17 332.326 204.17 367.864 239.708Z" fill="#1BA3A0"/>
<path d="M331.12 330C331.12 380.258 269.62 481 240.12 481C221.343 481 189.601 440.185 169.007 397.553C169.007 397.553 229.893 387.578 252.874 339.848C275.855 292.119 240.12 239 240.12 239C290.378 239 331.12 279.742 331.12 330Z" fill="#1E83F7"/>
<path d="M241.292 367.864C205.754 403.402 91.0316 431.15 70.172 410.29C56.8946 397.013 63.3104 345.708 78.8932 301C78.8932 301 129 337 179 319.5C229 302 241.292 239.171 241.292 239.171C276.83 274.708 276.83 332.326 241.292 367.864Z" fill="#857ED6"/>
<path d="M151 331.12C100.742 331.12 0 269.62 0 240.12C0 221.343 40.8148 189.601 83.4468 169.007C83.4468 169.007 93.4218 229.893 141.152 252.874C188.881 275.855 242 240.12 242 240.12C242 290.378 201.258 331.12 151 331.12Z" fill="#ED79B5"/>
<path d="M113.136 241.292C77.5984 205.754 49.8501 91.0317 70.7097 70.172C83.9871 56.8947 135.292 63.3105 180 78.8933C180 78.8933 144 129 161.5 179C179 229 241.83 241.292 241.83 241.292C206.292 276.83 148.674 276.83 113.136 241.292Z" fill="#F3516B"/>
<path d="M149.88 151C149.88 100.742 211.38 0 240.88 0C259.657 0 291.399 40.8148 311.993 83.4468C311.993 83.4468 251.107 93.4218 228.126 141.152C205.145 188.881 240.88 242 240.88 242C190.622 242 149.88 201.258 149.88 151Z" fill="#FA2921"/>
<path fill-rule="evenodd" clip-rule="evenodd" d="M149.88 151C149.88 100.742 211.38 2.79386e-05 240.88 3.05176e-05C259.513 3.21465e-05 290.912 40.191 311.517 82.466L301 86.0021C297.028 77.9485 292.647 69.967 288.034 62.3527C278.782 47.0798 268.814 33.6424 259.645 24.1816C255.053 19.4428 250.903 15.9546 247.375 13.7202C243.694 11.3895 241.6 11 240.88 11C240.16 11 238.066 11.3895 234.385 13.7202C230.857 15.9546 226.708 19.4428 222.115 24.1816C212.946 33.6424 202.978 47.0798 193.726 62.3527C184.501 77.5817 176.203 94.2797 170.243 110.085C164.214 126.074 160.88 140.357 160.88 151C160.88 195.183 196.697 231 240.88 231V242C190.622 242 149.88 201.258 149.88 151Z" fill="#0C1117"/>
<path fill-rule="evenodd" clip-rule="evenodd" d="M239.708 113.136C275.246 77.5984 389.968 49.85 410.828 70.7096C424.003 83.8851 417.787 134.507 402.464 178.97L392.526 174.033C395.412 165.53 397.958 156.788 400.081 148.143C404.338 130.801 406.791 114.251 406.998 101.077C407.101 94.4792 406.634 89.0785 405.719 85.0037C404.764 80.7533 403.559 78.9969 403.05 78.4878C402.54 77.9787 400.784 76.7732 396.534 75.8188C392.459 74.9039 387.058 74.4363 380.46 74.5398C367.287 74.7463 350.737 77.1992 333.395 81.4566C316.103 85.7018 298.428 91.6418 283.038 98.6034C267.469 105.646 255.012 113.388 247.486 120.914C221.164 147.237 217.019 187.338 235.051 218C236.617 220.662 238.35 223.254 240.25 225.758C242.44 228.645 244.852 231.417 247.486 234.051L239.708 241.829C204.17 206.292 204.17 148.674 239.708 113.136Z" fill="#0C1117"/>
<path fill-rule="evenodd" clip-rule="evenodd" d="M113.136 241.292C77.5984 205.754 49.8501 91.0317 70.7097 70.1721C83.8852 56.9966 134.507 63.2132 178.97 78.5363L174.033 88.4735C165.53 85.5878 156.788 83.0416 148.143 80.919C130.801 76.6616 114.251 74.2087 101.077 74.0022C94.4792 73.8987 89.0786 74.3663 85.0038 75.2812C80.7533 76.2356 78.997 77.4411 78.4879 77.9502C77.9788 78.4593 76.7733 80.2156 75.8189 84.4661C74.9039 88.5409 74.4364 93.9416 74.5398 100.54C74.7463 113.713 77.1993 130.263 81.4567 147.605C85.7019 164.897 91.6418 182.571 98.6035 197.962C105.646 213.531 113.389 225.988 120.914 233.514C152.156 264.756 202.809 264.756 234.051 233.514L241.83 241.292C206.292 276.83 148.674 276.83 113.136 241.292Z" fill="#0C1117"/>
<path fill-rule="evenodd" clip-rule="evenodd" d="M330 149.88C380.257 149.88 481 211.38 481 240.88C481 259.513 440.809 290.912 398.534 311.517L394.997 301C403.051 297.028 411.033 292.647 418.647 288.034C433.92 278.782 447.357 268.814 456.818 259.645C461.557 255.053 465.045 250.903 467.279 247.375C469.61 243.694 470 241.6 470 240.88C470 240.16 469.61 238.066 467.279 234.385C465.045 230.857 461.557 226.708 456.818 222.115C447.357 212.946 433.92 202.978 418.647 193.726C403.418 184.501 386.72 176.203 370.915 170.243C354.926 164.214 340.643 160.88 330 160.88C285.817 160.88 250 196.697 250 240.88H239C239 235.728 239.428 230.677 240.25 225.758C240.689 223.133 241.241 220.545 241.9 218C252.047 178.817 287.644 149.88 330 149.88Z" fill="#0C1117"/>
<path fill-rule="evenodd" clip-rule="evenodd" d="M367.863 239.708C403.401 275.246 431.149 389.968 410.29 410.828C397.114 424.003 346.492 417.787 302.03 402.464L306.966 392.527C315.47 395.412 324.211 397.958 332.857 400.081C350.199 404.338 366.749 406.791 379.922 406.998C386.52 407.101 391.921 406.634 395.996 405.719C400.246 404.764 402.003 403.559 402.512 403.05C403.021 402.541 404.226 400.784 405.181 396.534C406.096 392.459 406.563 387.058 406.46 380.46C406.253 367.287 403.8 350.737 399.543 333.395C395.298 316.103 389.358 298.429 382.396 283.038C375.354 267.469 367.611 255.012 360.085 247.486C328.843 216.244 278.19 216.244 246.948 247.486L239.17 239.708C274.708 204.17 332.326 204.17 367.863 239.708Z" fill="#0C1117"/>
<path fill-rule="evenodd" clip-rule="evenodd" d="M331.119 330C331.119 380.258 269.619 481 240.119 481C221.486 481 190.087 440.809 169.482 398.534L179.999 394.998C183.972 403.052 188.353 411.033 192.965 418.647C202.217 433.92 212.186 447.358 221.354 456.818C225.947 461.557 230.096 465.045 233.625 467.28C237.305 469.611 239.399 470 240.119 470C240.839 470 242.934 469.611 246.614 467.28C250.142 465.045 254.292 461.557 258.884 456.818C268.053 447.358 278.021 433.92 287.273 418.647C296.499 403.418 304.796 386.72 310.757 370.915C316.786 354.926 320.119 340.643 320.119 330C320.119 285.817 284.302 250 240.119 250V239C290.377 239 331.119 279.742 331.119 330Z" fill="#0C1117"/>
<path fill-rule="evenodd" clip-rule="evenodd" d="M241.292 367.864C205.754 403.402 91.0314 431.15 70.1717 410.29C56.9963 397.115 63.2129 346.493 78.536 302.03L88.4732 306.967C85.5874 315.47 83.0412 324.212 80.9187 332.857C76.6613 350.199 74.2084 366.75 74.0018 379.923C73.8984 386.521 74.366 391.922 75.2809 395.996C76.2353 400.247 77.4408 402.003 77.9499 402.512C78.459 403.021 80.2153 404.227 84.4658 405.181C88.5406 406.096 93.9413 406.564 100.539 406.46C113.713 406.254 130.263 403.801 147.605 399.543C164.897 395.298 182.571 389.358 197.962 382.397C213.53 375.354 225.988 367.612 233.513 360.086C264.755 328.844 264.755 278.191 233.513 246.949L241.292 239.171C276.829 274.708 276.829 332.326 241.292 367.864Z" fill="#0C1117"/>
<path fill-rule="evenodd" clip-rule="evenodd" d="M151 331.12C100.742 331.12 0 269.62 0 240.12C0 221.487 40.191 190.088 82.466 169.483L86.002 180C77.9485 183.972 69.967 188.353 62.3527 192.966C47.0797 202.218 33.6424 212.186 24.1815 221.355C19.4427 225.947 15.9545 230.097 13.7202 233.625C11.3895 237.306 11 239.4 11 240.12C11 240.84 11.3895 242.934 13.7202 246.615C15.9545 250.143 19.4427 254.292 24.1815 258.885C33.6424 268.054 47.0797 278.022 62.3527 287.274C77.5817 296.499 94.2797 304.797 110.085 310.757C126.074 316.786 140.357 320.12 151 320.12C195.183 320.12 231 284.303 231 240.12H242C242 290.378 201.258 331.12 151 331.12Z" fill="#0C1117"/>
<path d="M235.051 218C236.617 220.662 238.35 223.254 240.25 225.758C240.689 223.133 241.241 220.545 241.9 218C241.9 218 241 220 239 220C236.267 220 235.051 218 235.051 218Z" fill="#0C1117"/>
<path d="M252.486 221C251.711 223.99 251.104 227.047 250.676 230.162C252.844 228.616 255.064 227.176 257.329 225.843C257.329 225.843 255.278 226.621 253.864 225.206C251.932 223.274 252.486 221 252.486 221Z" fill="#0C1117"/>
<path d="M260.2 252.5C257.21 251.725 254.153 251.118 251.038 250.69C252.584 252.858 254.024 255.077 255.357 257.343C255.357 257.343 254.579 255.292 255.994 253.878C257.926 251.946 260.2 252.5 260.2 252.5Z" fill="#0C1117"/>
<path d="M245.92 262.9C244.354 260.238 242.621 257.646 240.721 255.142C240.282 257.767 239.73 260.355 239.071 262.9C239.071 262.9 239.971 260.9 241.971 260.9C244.704 260.9 245.92 262.9 245.92 262.9Z" fill="#0C1117"/>
<path d="M228.46 260.2C229.235 257.21 229.842 254.153 230.27 251.038C228.103 252.584 225.883 254.024 223.617 255.357C223.617 255.357 225.668 254.579 227.082 255.994C229.014 257.926 228.46 260.2 228.46 260.2Z" fill="#0C1117"/>
<path d="M218 245.95C220.662 244.384 223.254 242.651 225.758 240.751C223.133 240.312 220.545 239.76 218 239.101C218 239.101 220 240.001 220 242.001C220 244.734 218 245.95 218 245.95Z" fill="#0C1117"/>
<path d="M220.8 228.5C223.79 229.275 226.847 229.882 229.962 230.31C228.416 228.142 226.976 225.922 225.643 223.657C225.643 223.657 226.421 225.708 225.006 227.122C223.074 229.054 220.8 228.5 220.8 228.5Z" fill="#0C1117"/>
<path d="M263 235.05C260.338 236.616 257.746 238.349 255.242 240.249C257.867 240.688 260.455 241.24 263 241.899C263 241.899 261 240.999 261 238.999C261 236.266 263 235.05 263 235.05Z" fill="#0C1117"/>
</svg>
