<svg width="792" height="792" viewBox="0 0 792 792" fill="none" xmlns="http://www.w3.org/2000/svg">
<path d="M391.443 236.201C435.856 191.787 579.232 157.108 605.302 183.178C621.895 199.771 613.877 263.89 594.402 319.765C594.402 319.765 531.781 274.773 469.293 296.644C406.805 318.515 391.443 397.037 391.443 397.037C347.029 352.623 347.029 280.614 391.443 236.201Z" fill="#8BBB25"/>
<path d="M504.286 282.122C567.096 282.122 693 358.982 693 395.85C693 419.317 641.991 458.986 588.711 484.725C588.711 484.725 576.245 408.631 516.594 379.91C456.943 351.189 390.558 395.85 390.558 395.85C390.558 333.04 441.475 282.122 504.286 282.122Z" fill="#18C249"/>
<path d="M551.607 394.385C596.02 438.799 630.699 582.175 604.63 608.244C588.036 624.838 523.917 616.82 468.043 597.345C468.043 597.345 513.034 534.723 491.163 472.235C469.292 409.747 390.77 394.385 390.77 394.385C435.184 349.972 507.193 349.972 551.607 394.385Z" fill="#1BA3A0"/>
<path d="M505.685 507.229C505.685 570.039 428.825 695.943 391.957 695.943C368.49 695.943 328.821 644.934 303.082 591.654C303.082 591.654 379.176 579.188 407.897 519.537C436.618 459.886 391.957 393.5 391.957 393.5C454.767 393.5 505.685 444.418 505.685 507.229Z" fill="#1E83F7"/>
<path d="M393.422 554.55C349.008 598.963 205.632 633.642 179.563 607.573C162.969 590.979 170.988 526.86 190.462 470.986C190.462 470.986 253.084 515.977 315.572 494.106C378.06 472.236 393.422 393.714 393.422 393.714C437.836 438.127 437.836 510.136 393.422 554.55Z" fill="#857ED6"/>
<path d="M280.579 508.628C217.768 508.628 91.8646 431.768 91.8646 394.9C91.8646 371.433 142.873 331.764 196.153 306.026C196.153 306.026 208.62 382.119 268.27 410.84C327.921 439.561 394.307 394.9 394.307 394.9C394.307 457.71 343.389 508.628 280.579 508.628Z" fill="#ED79B5"/>
<path d="M233.258 396.365C188.844 351.951 154.165 208.575 180.235 182.506C196.828 165.912 260.947 173.93 316.822 193.405C316.822 193.405 271.83 256.027 293.701 318.515C315.572 381.003 394.094 396.365 394.094 396.365C349.68 440.778 277.671 440.778 233.258 396.365Z" fill="#F3516B"/>
<path d="M279.179 283.521C279.179 220.711 356.04 94.8074 392.908 94.8074C416.374 94.8074 456.044 145.816 481.782 199.096C481.782 199.096 405.688 211.562 376.967 271.213C348.247 330.864 392.908 397.25 392.908 397.25C330.097 397.25 279.179 346.332 279.179 283.521Z" fill="#FA2921"/>
<path d="M392.908 94.1824C398.981 94.1824 405.996 97.4718 413.452 103.112C420.925 108.766 428.922 116.846 436.974 126.573C451.355 143.948 465.953 166.634 478.089 190.286C487.041 187.419 496.118 184.857 505.102 182.651C527.459 177.163 549.262 173.874 567.124 173.594C576.055 173.454 584.02 174.066 590.586 175.54C597.142 177.012 602.366 179.358 605.744 182.736C610.038 187.031 612.673 194.317 613.956 203.577C615.243 212.859 615.184 224.228 613.999 236.8C611.883 259.254 606.163 285.616 598.02 310.923C606.377 315.226 614.608 319.832 622.521 324.626C642.211 336.553 659.952 349.645 672.781 362.078C679.194 368.294 684.395 374.358 687.995 380.044C691.59 385.721 693.624 391.073 693.624 395.85C693.624 401.924 690.336 408.939 684.696 416.394C679.042 423.867 670.961 431.865 661.234 439.917C643.859 454.298 621.173 468.894 597.521 481.031C600.388 489.983 602.951 499.06 605.157 508.045C610.645 530.402 613.933 552.205 614.213 570.067C614.353 578.998 613.741 586.963 612.267 593.529C610.795 600.085 608.449 605.308 605.072 608.686C600.777 612.981 593.491 615.616 584.231 616.899C574.949 618.186 563.58 618.127 551.008 616.942C528.553 614.826 502.19 609.106 476.883 600.963C472.58 609.32 467.974 617.551 463.181 625.464C451.253 645.153 438.161 662.895 425.729 675.723C419.513 682.137 413.449 687.338 407.763 690.938C402.086 694.533 396.733 696.567 391.956 696.567C385.883 696.567 378.867 693.279 371.412 687.638C363.939 681.985 355.942 673.904 347.89 664.177C333.508 646.802 318.911 624.116 306.775 600.464C297.823 603.33 288.746 605.894 279.762 608.099C257.405 613.588 235.603 616.876 217.741 617.156C208.81 617.296 200.845 616.685 194.279 615.211C187.927 613.785 182.826 611.538 179.443 608.328L179.121 608.014C174.827 603.72 172.191 596.434 170.908 587.174C169.621 577.891 169.68 566.523 170.865 553.951C172.981 531.496 178.7 505.133 186.843 479.826C178.487 475.523 170.256 470.917 162.344 466.124C142.654 454.196 124.912 441.105 112.083 428.673C105.67 422.457 100.47 416.391 96.8695 410.706C93.2746 405.029 91.2397 399.677 91.2396 394.9C91.2396 388.827 94.529 381.811 100.169 374.356C105.823 366.883 113.903 358.885 123.63 350.834C141.005 336.452 163.691 321.854 187.343 309.718C184.477 300.766 181.914 291.689 179.708 282.705C174.22 260.348 170.931 238.546 170.651 220.683C170.511 211.753 171.123 203.788 172.597 197.221C174.069 190.665 176.415 185.442 179.793 182.064C184.088 177.77 191.374 175.134 200.634 173.85C209.916 172.564 221.285 172.622 233.857 173.807C256.311 175.924 282.674 181.643 307.98 189.786C312.283 181.429 316.891 173.199 321.684 165.287C333.612 145.597 346.703 127.855 359.135 115.026C365.351 108.613 371.416 103.413 377.101 99.8123C382.778 96.2173 388.131 94.1825 392.908 94.1824Z" stroke="#272727" stroke-width="1.24976"/>
<path fill-rule="evenodd" clip-rule="evenodd" d="M279.179 283.521C279.179 220.711 356.039 94.8074 392.907 94.8074C416.194 94.8074 455.436 145.036 481.187 197.87L468.043 202.289C463.078 192.224 457.603 182.249 451.839 172.733C440.276 153.646 427.818 136.852 416.359 125.029C410.62 119.106 405.434 114.747 401.024 111.954C396.425 109.042 393.807 108.555 392.907 108.555C392.008 108.555 389.39 109.042 384.791 111.954C380.381 114.747 375.195 119.106 369.456 125.029C357.997 136.852 345.539 153.646 333.976 172.733C322.446 191.766 312.076 212.634 304.628 232.387C297.093 252.369 292.926 270.22 292.926 283.521C292.926 338.739 337.689 383.502 392.907 383.502V397.25C330.097 397.25 279.179 346.332 279.179 283.521Z" fill="#272727"/>
<path fill-rule="evenodd" clip-rule="evenodd" d="M391.442 236.2C435.856 191.787 579.232 157.108 605.301 183.178C621.768 199.644 613.998 262.909 594.848 318.477L582.429 312.308C586.035 301.68 589.218 290.755 591.87 279.95C597.191 258.277 600.257 237.593 600.515 221.13C600.644 212.884 600.06 206.134 598.916 201.042C597.723 195.73 596.217 193.535 595.581 192.898C594.944 192.262 592.749 190.756 587.437 189.563C582.345 188.419 575.595 187.835 567.349 187.964C550.886 188.222 530.202 191.288 508.529 196.609C486.918 201.914 464.829 209.338 445.595 218.038C426.137 226.839 410.569 236.516 401.163 245.921C368.267 278.818 363.086 328.935 385.623 367.255C387.579 370.583 389.745 373.821 392.12 376.952C394.857 380.559 397.871 384.024 401.163 387.316L391.442 397.037C347.029 352.623 347.029 280.614 391.442 236.2Z" fill="#272727"/>
<path fill-rule="evenodd" clip-rule="evenodd" d="M233.258 396.365C188.844 351.951 154.165 208.575 180.235 182.506C196.701 166.039 259.966 173.809 315.534 192.959L309.365 205.378C298.737 201.772 287.813 198.589 277.008 195.937C255.335 190.616 234.651 187.55 218.187 187.292C209.941 187.163 203.192 187.747 198.099 188.891C192.787 190.084 190.592 191.59 189.956 192.227C189.319 192.863 187.813 195.058 186.62 200.37C185.477 205.462 184.892 212.212 185.022 220.458C185.28 236.921 188.345 257.605 193.666 279.278C198.972 300.889 206.395 322.978 215.095 342.212C223.897 361.67 233.573 377.238 242.979 386.644C282.024 425.689 345.328 425.689 384.373 386.644L394.094 396.365C349.68 440.778 277.671 440.778 233.258 396.365Z" fill="#272727"/>
<path fill-rule="evenodd" clip-rule="evenodd" d="M504.285 282.122C567.096 282.122 692.999 358.982 692.999 395.85C692.999 419.137 642.77 458.378 589.936 484.13L585.517 470.986C595.582 466.021 605.557 460.546 615.073 454.782C634.161 443.219 650.954 430.761 662.778 419.302C668.701 413.562 673.06 408.376 675.852 403.967C678.765 399.367 679.252 396.75 679.252 395.85C679.252 394.95 678.765 392.333 675.852 387.733C673.06 383.324 668.701 378.138 662.778 372.398C650.954 360.94 634.161 348.481 615.073 336.919C596.041 325.389 575.172 315.019 555.419 307.571C535.437 300.035 517.587 295.869 504.285 295.869C449.067 295.869 404.304 340.632 404.304 395.85H390.557C390.557 389.412 391.092 383.098 392.12 376.952C392.669 373.67 393.358 370.436 394.182 367.255C406.864 318.286 451.351 282.122 504.285 282.122Z" fill="#272727"/>
<path fill-rule="evenodd" clip-rule="evenodd" d="M551.606 394.385C596.02 438.799 630.699 582.175 604.629 608.244C588.163 624.711 524.898 616.941 469.33 597.791L475.499 585.372C486.127 588.978 497.051 592.161 507.856 594.813C529.529 600.134 550.213 603.2 566.677 603.458C574.923 603.587 581.672 603.003 586.765 601.859C592.077 600.666 594.272 599.16 594.908 598.524C595.544 597.887 597.051 595.692 598.244 590.38C599.387 585.288 599.972 578.538 599.842 570.292C599.584 553.829 596.519 533.145 591.198 511.472C585.892 489.861 578.469 467.772 569.768 448.538C560.967 429.08 551.291 413.512 541.885 404.106C502.84 365.061 439.536 365.061 400.491 404.106L390.77 394.385C435.184 349.972 507.193 349.972 551.606 394.385Z" fill="#272727"/>
<path fill-rule="evenodd" clip-rule="evenodd" d="M505.685 507.229C505.685 570.039 428.825 695.943 391.957 695.943C368.67 695.943 329.428 645.714 303.677 592.88L316.821 588.461C321.786 598.526 327.26 608.501 333.025 618.017C344.588 637.104 357.046 653.898 368.505 665.722C374.244 671.644 379.43 676.003 383.84 678.796C388.439 681.709 391.057 682.195 391.957 682.195C392.856 682.195 395.474 681.709 400.073 678.796C404.483 676.003 409.669 671.644 415.408 665.722C426.867 653.898 439.325 637.104 450.888 618.017C462.418 598.984 472.788 578.116 480.236 558.363C487.771 538.381 491.937 520.53 491.937 507.229C491.937 452.011 447.175 407.248 391.957 407.248V393.5C454.767 393.5 505.685 444.418 505.685 507.229Z" fill="#272727"/>
<path fill-rule="evenodd" clip-rule="evenodd" d="M393.422 554.55C349.008 598.963 205.632 633.642 179.563 607.573C163.096 591.106 170.866 527.841 190.016 472.273L202.435 478.442C198.829 489.07 195.646 499.995 192.994 510.8C187.673 532.473 184.607 553.157 184.349 569.62C184.22 577.866 184.804 584.616 185.948 589.708C187.141 595.02 188.647 597.215 189.283 597.852C189.92 598.488 192.115 599.995 197.427 601.187C202.519 602.331 209.269 602.915 217.515 602.786C233.978 602.528 254.662 599.462 276.335 594.141C297.946 588.836 320.035 581.412 339.269 572.712C358.727 563.911 374.295 554.234 383.701 544.829C422.746 505.784 422.746 442.479 383.701 403.434L393.422 393.714C437.835 438.127 437.835 510.136 393.422 554.55Z" fill="#272727"/>
<path fill-rule="evenodd" clip-rule="evenodd" d="M280.579 508.628C217.768 508.628 91.8646 431.768 91.8646 394.9C91.8646 371.613 142.094 332.372 194.927 306.62L199.347 319.764C189.282 324.729 179.307 330.204 169.791 335.968C150.703 347.531 133.91 359.989 122.086 371.448C116.163 377.188 111.804 382.374 109.012 386.783C106.099 391.383 105.612 394 105.612 394.9C105.612 395.8 106.099 398.417 109.012 403.017C111.804 407.426 116.163 412.612 122.086 418.352C133.91 429.81 150.703 442.269 169.791 453.831C188.823 465.361 209.692 475.731 229.445 483.18C249.426 490.715 267.277 494.881 280.579 494.881C335.797 494.881 380.56 450.118 380.56 394.9H394.307C394.307 457.71 343.389 508.628 280.579 508.628Z" fill="#272727"/>
<path d="M385.623 367.255C387.579 370.583 389.745 373.821 392.12 376.952C392.669 373.67 393.358 370.436 394.182 367.255C394.182 367.255 393.057 369.755 390.558 369.755C387.143 369.755 385.623 367.255 385.623 367.255Z" fill="#272727"/>
<path d="M407.412 371.005C406.443 374.741 405.684 378.563 405.15 382.455C407.859 380.523 410.633 378.723 413.464 377.057C413.464 377.057 410.902 378.029 409.134 376.262C406.719 373.847 407.412 371.005 407.412 371.005Z" fill="#272727"/>
<path d="M417.053 410.372C413.316 409.403 409.495 408.645 405.602 408.11C407.534 410.819 409.334 413.593 411 416.425C411 416.425 410.028 413.862 411.796 412.094C414.21 409.68 417.053 410.372 417.053 410.372Z" fill="#272727"/>
<path d="M399.206 423.37C397.249 420.042 395.083 416.804 392.709 413.673C392.16 416.955 391.47 420.189 390.647 423.37C390.647 423.37 391.771 420.87 394.271 420.87C397.686 420.87 399.206 423.37 399.206 423.37Z" fill="#272727"/>
<path d="M377.385 419.995C378.354 416.259 379.113 412.437 379.647 408.545C376.938 410.477 374.164 412.277 371.333 413.943C371.333 413.943 373.896 412.971 375.663 414.738C378.078 417.153 377.385 419.995 377.385 419.995Z" fill="#272727"/>
<path d="M364.313 402.186C367.64 400.229 370.878 398.064 374.009 395.689C370.727 395.14 367.493 394.45 364.313 393.627C364.313 393.627 366.812 394.752 366.812 397.251C366.812 400.666 364.313 402.186 364.313 402.186Z" fill="#272727"/>
<path d="M367.812 380.378C371.549 381.347 375.37 382.105 379.263 382.64C377.33 379.931 375.531 377.157 373.864 374.326C373.864 374.326 374.836 376.888 373.069 378.656C370.654 381.071 367.812 380.378 367.812 380.378Z" fill="#272727"/>
<path d="M420.552 388.564C417.225 390.521 413.986 392.686 410.856 395.061C414.138 395.61 417.372 396.3 420.552 397.123C420.552 397.123 418.052 395.998 418.052 393.499C418.052 390.084 420.552 388.564 420.552 388.564Z" fill="#272727"/>
</svg>
